<svg width="1636" height="378" viewBox="0 0 1636 378" fill="none" xmlns="http://www.w3.org/2000/svg">
<path d="M809.591 378C1256.72 378 1619.18 293.382 1619.18 189C1619.18 84.6182 1256.72 0 809.591 0C362.466 0 0 84.6182 0 189C0 293.382 362.466 378 809.591 378Z" fill="#1DEC0B" fill-opacity="0.6"/>
<path d="M199.542 278.328C196.075 278.347 193.069 276.363 190.522 272.377C187.976 268.523 186.156 262.2 185.061 253.406C184.925 252.74 184.856 251.94 184.853 251.007C184.85 249.94 184.846 248.873 184.843 247.807C184.828 243.407 185.077 237.872 185.589 231.203C186.1 224.4 186.743 216.929 187.516 208.792C188.29 200.654 188.996 192.317 189.635 183.78C190.407 175.109 191.046 166.639 191.553 158.37C192.06 150.1 192.302 142.565 192.28 135.765C192.253 127.365 191.697 120.568 190.614 115.374C189.53 110.18 187.588 107.59 184.788 107.605C183.055 107.615 181.325 108.624 179.598 110.633C178.004 112.508 176.545 114.65 175.219 117.057C174.026 119.33 173.033 121.202 172.237 122.673C171.575 124.01 171.176 124.212 171.039 123.279C170.904 122.747 170.769 122.281 170.635 121.882C170.633 121.348 170.631 120.815 170.63 120.282C170.621 117.748 171.213 115.078 172.404 112.272C173.594 109.465 175.254 107.123 177.381 105.245C179.508 103.234 181.904 102.221 184.571 102.206C185.104 102.204 185.571 102.268 185.972 102.399C186.372 102.397 186.772 102.461 187.172 102.592C192.377 103.898 195.924 108.146 197.814 115.335C199.704 122.525 200.665 131.254 200.698 141.52C200.723 149.254 200.35 157.456 199.578 166.127C198.94 174.797 198.168 183.534 197.263 192.339C196.491 201.01 195.718 209.281 194.943 217.152C194.302 225.022 193.991 231.957 194.011 237.957C194.016 239.691 194.022 241.357 194.027 242.957C194.165 244.423 194.303 245.823 194.441 247.155C195.534 255.549 197.02 261.408 198.898 264.731C200.775 268.188 202.914 269.91 205.314 269.897C207.981 269.883 210.709 268.401 213.5 265.453C216.424 262.504 219.278 258.822 222.064 254.407C224.85 249.992 227.369 245.578 229.621 241.166C232.669 235.416 235.447 228.668 237.956 220.921C240.464 213.174 242.705 205.295 244.679 197.285C246.787 189.273 248.429 181.931 249.608 175.258C248.267 172.999 247.46 170.669 247.185 168.271C246.911 165.872 246.767 162.806 246.755 159.073C246.742 155.073 247.466 151.936 248.925 149.661C250.384 147.387 251.914 146.245 253.514 146.237C255.914 146.224 257.52 148.215 258.333 152.211C259.821 158.87 261.311 165.928 262.802 173.387C264.292 180.713 265.916 187.904 267.672 194.961C269.561 202.018 271.716 208.54 274.135 214.527C279.107 226.367 283.668 234.876 287.818 240.054C291.968 245.098 295.776 247.611 299.242 247.592C302.842 247.573 305.968 245.29 308.62 240.742C311.405 236.06 313.719 229.981 315.561 222.504C317.403 214.894 318.777 206.687 319.681 197.882C320.586 188.944 321.024 180.208 320.996 171.675C320.974 164.608 320.619 158.01 319.932 151.88C319.379 145.75 318.363 140.755 316.884 136.896C316.345 135.299 315.94 133.635 315.668 131.903C315.395 130.171 315.257 128.572 315.252 127.105C315.246 125.238 315.441 123.637 315.836 122.302C316.366 120.965 317.097 120.295 318.03 120.29C319.097 120.284 320.166 121.078 321.238 122.673C322.71 124.531 324.052 127.124 325.263 130.451C326.607 133.644 327.749 136.438 328.69 138.833C329.765 141.494 331.176 144.753 332.922 148.61C334.667 152.334 336.478 155.791 338.355 158.981C340.365 162.037 342.305 163.893 344.173 164.55C344.441 164.682 344.575 164.948 344.576 165.348C344.579 166.148 343.981 166.818 342.783 167.358C341.584 167.897 340.718 168.102 340.185 167.971C337.113 166.521 334.508 165.002 332.37 163.413C330.364 161.691 328.021 158.57 325.339 154.051C325.48 156.45 325.555 158.917 325.563 161.45C325.571 163.85 325.579 166.25 325.587 168.65C325.609 175.583 325.365 182.518 324.854 189.454C324.477 196.39 323.633 203.394 322.322 210.468C319.438 225.817 315.741 236.77 311.229 243.328C306.85 249.885 302.194 253.177 297.26 253.203C293.261 253.225 289.255 251.513 285.244 248.068C281.366 244.488 277.75 239.774 274.398 233.926C271.046 228.077 268.158 221.559 265.735 214.372C263.579 207.45 261.758 201.126 260.273 195.401C258.787 189.542 257.638 184.415 256.823 180.019C254.721 189.631 251.952 199.179 248.516 208.664C245.213 218.149 241.509 227.102 237.403 235.524C233.297 243.813 228.987 251.17 224.474 257.594C220.095 264.018 215.712 269.041 211.323 272.665C207.069 276.421 203.142 278.309 199.542 278.328ZM415.081 278.771C407.081 278.814 399.935 274.719 393.641 266.486C385.116 269.065 377.32 270.373 370.254 270.411C362.521 270.453 356.449 269.019 352.04 266.109C347.631 263.333 345.42 259.811 345.406 255.545C345.395 252.211 346.783 248.604 349.571 244.722C352.358 240.84 356.679 237.017 362.534 233.252C364.929 231.773 367.524 230.292 370.319 228.81C373.248 227.328 376.377 225.978 379.706 224.76C379.292 220.495 379.078 215.963 379.062 211.163C379.027 200.23 380.188 188.224 382.545 175.144C384.903 161.931 388.857 147.71 394.407 132.48C384.557 137.466 375.509 143.381 367.265 150.226C359.02 156.937 352.642 163.838 348.132 170.929C346.673 173.337 344.877 174.546 342.743 174.558C341.277 174.566 340.541 173.836 340.536 172.37C340.533 171.303 341.128 169.7 342.321 167.56C343.38 165.421 345.305 162.744 348.095 159.529C353.408 153.367 360.322 147.396 368.837 141.617C377.351 135.838 386.669 130.855 396.788 126.667C399.035 120.388 401.615 114.241 404.529 108.225C405.323 106.488 406.52 105.614 408.12 105.606C409.187 105.6 410.055 105.995 410.724 106.792C411.526 107.454 411.929 108.319 411.932 109.385C411.934 109.919 411.803 110.586 411.539 111.388C410.745 113.259 409.951 115.129 409.157 117C408.496 118.871 407.836 120.741 407.175 122.611C409.04 121.934 410.971 121.324 412.969 120.78C414.968 120.236 416.899 119.692 418.764 119.149C429.156 116.693 438.419 115.443 446.552 115.4C457.219 115.342 466.024 117.095 472.969 120.658C479.914 124.22 485.063 129.126 488.417 135.375C491.77 141.49 493.459 148.481 493.485 156.348C493.511 164.481 491.806 173.091 488.368 182.176C485.065 191.26 480.161 200.42 473.657 209.655C467.154 218.757 459.048 227.4 449.341 235.586C439.768 243.771 428.791 251.03 416.412 257.363C409.889 260.598 403.697 263.232 397.837 265.263C401.048 268.579 404.322 270.895 407.66 272.21C410.997 273.526 413.733 274.178 415.866 274.166C417.733 274.156 419.065 273.749 419.862 272.945C421.058 271.605 422.322 270.932 423.656 270.924C424.589 270.919 425.39 271.182 426.058 271.712C426.727 272.241 427.062 272.839 427.064 273.506C427.068 274.573 426.204 275.577 424.474 276.52C422.876 277.329 421.278 277.871 419.679 278.146C418.08 278.554 416.548 278.763 415.081 278.771ZM395.83 262.874C398.893 261.791 402.088 260.44 405.416 258.822C408.878 257.337 412.406 255.518 415.999 253.365C431.037 244.618 443.472 234.818 453.304 223.965C463.268 212.978 470.699 201.871 475.596 190.645C480.626 179.417 483.126 169.004 483.095 159.404C483.058 147.937 479.56 138.556 472.603 131.26C465.646 123.83 455.234 120.153 441.368 120.227C434.701 120.263 427.171 121.304 418.778 123.349C416.513 123.894 414.248 124.573 411.984 125.385C409.72 126.064 407.456 126.876 405.192 127.822C397.128 149.199 391.588 167.695 388.572 183.312C385.555 198.795 384.131 212.003 384.3 222.935C390.826 220.633 397.82 218.796 405.282 217.422C412.878 216.048 420.742 215.339 428.876 215.296C430.342 215.288 431.809 215.347 433.276 215.472C434.876 215.463 436.476 215.522 438.077 215.646C439.81 215.77 440.678 216.166 440.681 216.832C440.684 217.899 438.686 218.443 434.686 218.465C432.953 218.474 431.152 218.417 429.285 218.294C427.552 218.17 425.818 218.112 424.085 218.121C416.618 218.162 409.487 218.933 402.692 220.436C395.897 221.94 389.77 223.839 384.311 226.135C384.739 235.066 386.03 242.526 388.183 248.515C390.335 254.37 392.884 259.156 395.83 262.874ZM375.842 266.581C380.508 266.556 385.839 265.727 391.834 264.095C389.02 259.844 386.536 254.724 384.384 248.735C382.364 242.613 380.875 235.687 379.916 227.959C373.527 231.193 368.338 234.621 364.35 238.243C361.292 240.926 359.034 243.604 357.576 246.279C356.118 248.954 355.392 251.424 355.4 253.691C355.412 257.424 357.222 260.481 360.829 262.862C364.438 265.376 369.442 266.616 375.842 266.581ZM605.913 301.946C600.713 301.974 595.707 300.067 590.894 296.227C586.082 292.519 581.929 286.341 578.434 277.693C577.224 274.633 576.347 271.438 575.803 268.107C575.259 264.777 574.982 261.445 574.971 258.112C574.953 252.645 575.536 247.175 576.718 241.702C577.9 236.229 579.417 231.087 581.268 226.277C582.723 222.803 584.777 218.925 587.43 214.644C590.083 210.23 592.604 206.616 594.995 203.803C595.792 202.999 596.79 202.127 597.987 201.187C599.183 200.114 599.981 199.577 600.381 199.574C600.515 199.574 600.582 199.64 600.582 199.773C600.583 200.173 599.455 201.779 597.198 204.592C591.753 211.288 587.711 218.909 585.072 227.457C582.566 235.871 581.326 244.211 581.353 252.477C581.369 257.411 581.784 262.142 582.599 266.671C583.547 271.199 584.76 275.393 586.239 279.251C589.062 286.303 592.079 291.353 595.289 294.403C598.632 297.452 602.103 298.966 605.703 298.947C610.237 298.923 614.83 296.965 619.484 293.073C624.138 289.181 628.655 284.024 633.034 277.6C637.547 271.176 641.724 264.22 645.567 256.732C649.409 249.245 652.718 241.827 655.495 234.479C658.404 226.996 660.515 220.318 661.83 214.445L664.79 202.029C664.122 201.899 663.788 201.634 663.787 201.234C663.785 200.567 664.316 199.898 665.38 199.225C666.957 192.017 668.134 184.944 668.912 178.006C669.823 171.068 670.269 164.665 670.25 158.799C670.229 152.399 669.611 146.802 668.395 142.008C667.312 137.081 665.5 133.357 662.959 130.838C661.889 129.777 660.687 129.25 659.354 129.257C658.42 129.262 657.421 129.534 656.356 130.073C655.425 130.611 654.494 131.283 653.563 132.088C652.633 133.026 652.499 132.827 653.161 131.49C653.956 130.019 655.218 128.412 656.945 126.67C658.806 124.926 660.804 124.049 662.937 124.038C664.137 124.031 665.338 124.425 666.541 125.218C670.817 128.129 673.831 132.579 675.584 138.57C677.47 144.56 678.426 151.488 678.451 159.355C678.468 164.555 678.153 170.023 677.504 175.76C676.856 181.497 675.942 187.368 674.762 193.375C675.029 193.64 675.23 193.972 675.365 194.372C675.633 194.77 675.901 195.169 676.169 195.567C692.285 190.281 705.2 184.678 714.914 178.759C724.762 172.839 731.876 166.868 736.256 160.844C740.77 154.82 743.018 149.074 743.001 143.608C742.982 137.874 740.832 132.753 736.551 128.242C732.269 123.732 726.391 120.163 718.916 117.537C711.441 114.91 702.837 113.623 693.103 113.675C684.037 113.724 674.641 115.041 664.916 117.627C656.124 120.074 647.736 123.653 639.751 128.362C631.899 132.938 624.849 138.042 618.6 143.676C612.485 149.309 607.503 154.869 603.654 160.356C599.939 165.843 597.821 170.654 597.301 174.791C597.044 177.725 596.518 179.862 595.722 181.199C595.06 182.536 594.395 183.206 593.728 183.21C591.728 183.221 590.721 180.826 590.705 176.026C590.703 175.359 590.701 174.693 590.699 174.026C590.83 173.359 590.961 172.691 591.092 172.024C591.873 166.02 594.52 160.005 599.034 153.981C603.681 147.956 609.529 142.325 616.579 137.087C623.762 131.715 631.613 126.939 640.133 122.76C648.653 118.581 657.175 115.335 665.701 113.023C671.163 111.527 676.493 110.431 681.691 109.737C687.022 109.041 692.154 108.68 697.087 108.654C707.887 108.596 717.425 110.011 725.701 112.9C733.977 115.789 740.457 119.754 745.14 124.796C749.822 129.704 752.174 135.358 752.195 141.758C752.212 147.092 750.23 152.769 746.25 158.791C742.269 164.812 735.889 170.846 727.108 176.894C718.328 182.941 706.747 188.803 692.365 194.48C689.435 195.563 686.772 196.51 684.374 197.323C682.11 198.135 680.046 198.88 678.182 199.557C680.864 204.342 684.349 209.924 688.636 216.301C692.923 222.678 697.477 229.12 702.298 235.628C707.253 242.134 712.139 248.041 716.956 253.349C721.773 258.657 726.12 262.7 729.995 265.479C732.401 267.2 735.206 268.918 738.412 270.634C741.751 272.483 744.954 273.399 748.021 273.382C751.088 273.366 753.418 272.487 755.012 270.745C756.607 269.136 757.734 267.064 758.392 264.527C759.051 261.99 759.376 259.455 759.368 256.921C759.34 248.255 756.78 240.268 751.69 232.962C751.288 232.298 751.087 231.899 751.086 231.765C751.085 231.365 751.284 231.164 751.684 231.162C752.484 231.158 753.286 231.687 754.089 232.749C756.766 235.935 758.912 239.657 760.526 243.915C762.139 248.173 762.953 252.435 762.967 256.702C762.988 263.235 761.073 268.712 757.22 273.133C753.502 277.686 748.376 279.981 741.842 280.016C735.042 280.052 728.703 278.22 722.825 274.518C717.079 270.815 711.73 265.911 706.777 259.804C701.824 253.697 697.336 247.121 693.313 240.076C689.29 232.897 685.733 225.85 682.644 218.933C679.555 212.016 676.869 205.897 674.585 200.576L673.186 200.983C671.083 210.195 668.645 219.141 665.873 227.823C663.235 236.504 660.46 244.386 657.55 251.468C653.978 260.287 649.338 268.512 643.63 276.143C638.055 283.906 631.942 290.139 625.29 294.842C618.772 299.544 612.313 301.912 605.913 301.946ZM799.625 254.905C794.825 254.931 790.616 252.153 786.998 246.573C783.513 240.858 781.751 231.867 781.711 219.601C781.685 211.601 782.664 205.196 784.649 200.385C786.633 195.441 789.088 191.828 792.014 189.545C794.939 187.263 797.736 186.114 800.402 186.1C803.069 186.086 805.339 187.007 807.211 188.863C809.084 190.587 810.025 193.115 810.036 196.448C810.046 199.648 809.124 203.053 807.269 206.663C805.414 210.14 803.157 213.352 800.5 216.3C797.976 219.113 795.449 220.994 792.918 221.941C792.386 222.21 791.72 222.347 790.92 222.351C790.386 222.354 790.119 222.156 790.118 221.756C790.114 220.689 791.177 219.483 793.306 218.139C795.967 216.258 798.491 213.444 800.879 209.698C803.266 205.818 804.455 202.412 804.446 199.478C804.44 197.745 804.036 196.414 803.233 195.485C802.429 194.423 801.494 193.894 800.428 193.9C798.428 193.911 796.233 195.523 793.843 198.735C791.587 201.814 789.937 207.156 788.895 214.762C788.635 216.897 788.375 218.965 788.115 220.966C787.988 222.834 787.927 224.701 787.933 226.567C787.958 234.034 789.11 239.895 791.39 244.149C793.67 248.27 796.677 250.321 800.41 250.301C803.61 250.284 807.204 248.398 811.192 244.643C815.179 240.755 819.093 234.734 822.934 226.58C823.86 224.441 824.923 223.369 826.123 223.362C826.923 223.358 827.325 223.889 827.328 224.956C827.331 225.889 827.068 226.891 826.538 227.96C823.099 236.512 818.921 243.135 814.002 247.828C809.084 252.521 804.292 254.88 799.625 254.905ZM862.998 260.565C861.265 260.574 859.997 259.981 859.193 258.785C858.523 257.722 858.186 256.657 858.182 255.591C858.175 253.457 859.102 251.252 860.961 248.976C861.625 248.172 862.555 247.1 863.751 245.761C864.946 244.287 865.809 243.149 866.339 242.347C864.598 239.956 862.258 237.768 859.318 235.784C856.378 233.8 853.504 231.282 850.694 228.23C848.151 225.444 846.007 222.056 844.261 218.065C842.514 213.941 841.635 210.012 841.623 206.279C841.608 201.879 842.595 197.674 844.582 193.663C846.569 189.652 849.024 186.172 851.948 183.223C855.138 180.006 858.663 177.454 862.523 175.566C866.383 173.546 870.38 172.524 874.513 172.502C877.313 172.487 880.049 173.139 882.72 174.458C885.391 175.777 886.731 177.97 886.741 181.036C886.753 184.636 885.958 186.441 884.358 186.449C883.692 186.453 883.223 185.789 882.952 184.457C882.817 183.791 882.748 183.124 882.746 182.458C882.743 181.658 882.741 181.124 882.74 180.858C882.736 179.524 882.132 178.394 880.929 177.467C879.726 176.407 878.391 175.881 876.924 175.889C873.858 175.905 870.462 177.124 866.736 179.544C863.011 181.964 859.886 184.781 857.363 187.994C854.841 191.341 852.787 195.152 851.2 199.427C849.614 203.569 848.827 207.574 848.839 211.44C848.855 216.24 849.935 220.368 852.079 223.823C854.224 227.278 856.767 230.331 859.709 232.982C862.784 235.632 865.526 238.218 867.934 240.738C869.13 239.265 870.392 237.858 871.721 236.518C873.183 235.176 874.513 234.103 875.71 233.296C876.775 232.624 877.507 232.286 877.907 232.284C878.307 232.282 878.508 232.481 878.509 232.881C878.511 233.548 877.914 234.351 876.717 235.291C876.451 235.559 875.653 236.363 874.324 237.704C873.128 238.91 871.667 240.451 869.939 242.327C871.01 243.522 871.881 244.784 872.552 246.113C873.223 247.443 873.561 248.908 873.566 250.508C873.573 252.641 872.38 254.848 869.987 257.127C867.595 259.407 865.265 260.553 862.998 260.565ZM865.181 255.153C866.114 255.148 866.978 254.277 867.773 252.539C868.701 250.934 869.162 249.332 869.157 247.732C869.154 246.932 869.019 246.199 868.75 245.534C868.481 244.868 868.28 244.47 868.146 244.337C867.084 245.676 866.088 247.148 865.16 248.753C864.365 250.224 863.969 251.559 863.973 252.759C863.978 254.359 864.381 255.157 865.181 255.153ZM927.795 283.617C926.462 283.624 925.059 282.765 923.587 281.04C922.248 279.447 920.974 277.187 919.765 274.26C917.749 269.471 916.333 264.412 915.516 259.083C914.699 253.887 914.282 248.623 914.265 243.289C914.246 237.423 914.627 231.687 915.409 226.083C916.191 220.479 917.041 215.407 917.96 210.869C918.616 207.665 919.405 204.261 920.326 200.656C921.248 197.051 922.105 194.18 922.899 192.042C922.099 192.18 920.834 192.653 919.103 193.463C917.372 194.272 915.575 195.082 913.711 195.892C911.98 196.701 910.448 197.109 909.115 197.116C907.115 197.127 906.111 195.999 906.104 193.732C906.1 192.532 906.497 191.464 907.294 190.526C908.224 189.588 909.355 188.848 910.686 188.308C913.349 187.093 916.28 186.211 919.478 185.661C922.676 184.977 924.807 184.299 925.871 183.626L931.028 170.398C931.557 169.062 932.484 166.924 933.808 163.983C935.264 160.909 936.92 157.633 938.776 154.156C940.765 150.679 942.688 147.535 944.545 144.725C946.005 142.584 947.4 140.91 948.729 139.703C950.058 138.362 951.523 137.688 953.123 137.679C955.523 137.666 956.726 138.593 956.732 140.46C956.735 141.527 956.274 143.129 955.347 145.267C954.554 147.405 953.03 150.213 950.774 153.692C948.254 157.706 945.667 161.72 943.013 165.734C940.493 169.614 938.306 173.693 936.453 177.969C936.321 178.503 935.991 179.372 935.461 180.575C935.065 181.643 934.734 182.312 934.468 182.58L938.466 181.958C939.532 181.819 940.732 181.746 942.065 181.739C943.398 181.599 944.865 181.524 946.465 181.516C948.731 181.503 950.865 181.625 952.866 181.881C954.999 182.003 956.734 182.327 958.069 182.853C958.736 183.116 959.338 183.446 959.872 183.844C960.54 184.107 960.874 184.371 960.875 184.638C960.876 185.171 959.144 185.447 955.677 185.466C953.677 185.477 950.812 185.826 947.081 186.512C943.483 187.198 939.353 188.287 934.691 189.779C932.427 190.458 930.897 191.399 930.1 192.604C929.304 193.808 928.247 196.68 926.928 201.221C924.952 208.431 923.374 215.373 922.196 222.046C921.017 228.586 920.105 235.258 919.461 242.061C919.332 243.395 919.203 244.796 919.074 246.263C919.079 247.73 919.084 249.33 919.09 251.063C919.104 255.597 919.52 260.328 920.336 265.257C921.285 270.185 922.632 274.445 924.377 278.035C924.78 278.833 925.182 279.564 925.584 280.229C926.12 280.893 926.721 281.356 927.389 281.619C928.323 282.014 928.792 282.478 928.793 283.012C928.795 283.412 928.462 283.613 927.795 283.617ZM983.707 258.316C979.307 258.34 975.703 257.026 972.894 254.374C970.219 251.722 968.208 248.333 966.861 244.207C965.514 239.947 964.833 235.484 964.818 230.818C964.809 228.018 965.067 225.349 965.592 222.813C966.117 220.277 966.644 218.208 967.172 216.605C967.036 215.672 966.899 214.74 966.763 213.807C966.76 212.74 966.756 211.674 966.753 210.607C966.74 206.74 967.126 202.538 967.912 198.001C968.697 193.463 969.95 189.123 971.67 184.98C973.523 180.837 975.779 177.491 978.437 174.944C981.228 172.262 984.624 170.91 988.624 170.889C992.091 170.87 995.495 172.319 998.838 175.234C1002.18 178.016 1005.13 182.134 1007.68 187.587C1009.15 190.646 1010.17 193.974 1010.71 197.571C1011.39 201.034 1011.73 204.565 1011.74 208.165C1011.76 213.099 1011.24 218.035 1010.19 222.974C1009.28 227.779 1007.89 232.32 1006.04 236.596C1004.71 239.67 1002.92 242.946 1000.67 246.425C998.546 249.77 996.089 252.583 993.296 254.865C990.503 257.147 987.307 258.297 983.707 258.316ZM984.693 253.911C989.226 253.887 993.416 250.731 997.262 244.443C1000.05 240.028 1002.03 235.018 1003.21 229.411C1004.4 223.672 1004.98 217.935 1004.96 212.202C1004.94 207.935 1004.66 203.803 1004.12 199.806C1003.57 195.809 1002.76 191.947 1001.68 188.219C1000.74 184.891 999.127 181.966 996.852 179.445C994.71 176.79 991.64 175.673 987.641 176.094C984.442 176.378 981.647 177.993 979.257 180.939C976.866 183.886 975.01 187.229 973.689 190.969C972.501 194.576 971.911 197.712 971.919 200.379C971.924 201.846 972.128 202.978 972.53 203.776C972.927 202.707 973.921 200.968 975.514 198.56C977.105 196.018 978.898 193.741 980.891 191.731C982.885 189.587 984.748 188.51 986.481 188.501C987.948 188.493 988.683 189.089 988.687 190.289C986.954 190.432 985.224 191.507 983.497 193.517C981.903 195.392 980.377 197.667 978.919 200.341C977.595 203.015 976.47 205.688 975.545 208.36C974.754 210.897 974.16 212.9 973.765 214.369C973.633 214.903 973.435 215.571 973.171 216.373C972.907 217.174 972.776 217.975 972.779 218.775C972.782 219.708 973.32 221.238 974.394 223.366C975.467 225.36 977.206 227.218 979.612 228.938C982.018 230.659 985.287 231.508 989.42 231.485C990.62 231.479 991.886 231.339 993.219 231.065C994.551 230.791 995.817 230.518 997.016 230.245L998.415 229.837C998.682 229.836 998.815 229.968 998.816 230.235C998.818 230.635 998.353 231.171 997.421 231.842C996.623 232.38 995.891 232.784 995.225 233.054C993.362 233.998 991.297 234.475 989.03 234.488C985.697 234.505 982.494 233.523 979.42 231.539C976.48 229.422 973.872 227.036 971.597 224.381C971.467 225.448 971.404 226.515 971.408 227.582C971.411 228.515 971.414 229.449 971.417 230.382C971.442 238.115 972.794 243.975 975.474 247.961C978.153 251.946 981.226 253.93 984.693 253.911ZM1065.01 260.88C1060.74 260.903 1057.47 258.92 1055.19 254.932C1052.91 251.078 1051.76 246.817 1051.75 242.151C1051.73 237.751 1052.45 233.147 1053.9 228.339C1055.35 223.531 1057.14 218.788 1059.26 214.11C1061.51 209.431 1063.83 205.152 1066.21 201.273C1063.82 202.219 1061.55 202.698 1059.42 202.709C1058.35 202.715 1057.42 202.587 1056.62 202.324C1055.82 202.062 1055.15 201.865 1054.62 201.735C1053.95 203.338 1052.76 206.012 1051.04 209.754C1049.45 213.496 1047.73 217.439 1045.88 221.582C1044.16 225.591 1042.64 229 1041.31 231.807C1039.2 236.351 1037.34 238.628 1035.74 238.637C1034.94 238.641 1034.53 238.11 1034.53 237.043C1034.53 236.243 1034.86 235.175 1035.52 233.838C1038.57 228.088 1041.42 222.406 1044.07 216.792C1046.85 211.177 1049.36 205.763 1051.61 200.551C1051.34 199.886 1051.07 199.021 1050.8 197.955C1050.53 196.757 1050.4 195.491 1050.39 194.158C1050.39 192.691 1050.52 191.157 1050.78 189.555C1051.17 187.82 1051.7 186.15 1052.36 184.547C1052.76 183.611 1053.49 182.274 1054.55 180.535C1055.61 178.663 1056.8 176.99 1058.13 175.516C1059.46 173.909 1060.72 173.102 1061.92 173.095C1064.19 173.083 1065.33 174.277 1065.34 176.677C1065.34 178.944 1064.62 181.548 1063.16 184.489C1061.84 187.429 1060.45 190.17 1058.99 192.711C1057.53 195.119 1056.8 196.923 1056.8 198.123C1056.81 199.19 1057.34 199.72 1058.41 199.715C1059.88 199.707 1061.67 198.964 1063.8 197.486C1066.06 195.873 1067.86 194.397 1069.19 193.057C1069.85 192.386 1070.92 191.381 1072.38 190.039C1073.84 188.565 1075.24 187.824 1076.57 187.817C1077.9 187.81 1078.77 188.205 1079.18 189.003C1079.71 189.8 1079.98 190.732 1079.98 191.799C1079.99 192.999 1079.46 194.535 1078.4 196.407C1077.34 198.146 1076.08 199.886 1074.62 201.628C1073.29 203.368 1072.16 204.841 1071.23 206.046C1069.37 208.856 1067.25 212.401 1064.86 216.68C1062.48 220.96 1060.43 225.571 1058.71 230.513C1056.99 235.323 1056.14 239.927 1056.15 244.327C1056.16 247.26 1056.91 250.323 1058.38 253.515C1059.86 256.707 1061.87 258.297 1064.4 258.283C1066.67 258.271 1069.06 257.058 1071.59 254.644C1074.25 252.23 1076.7 249.35 1078.96 246.005C1081.35 242.659 1083.41 239.447 1085.13 236.371C1086.99 233.295 1088.25 231.155 1088.91 229.951C1089.17 229.283 1089.64 228.48 1090.3 227.544C1090.96 226.473 1091.76 225.936 1092.69 225.931C1093.49 225.926 1093.9 226.324 1093.9 227.124C1093.9 227.791 1093.7 228.592 1093.31 229.527C1093.04 230.329 1092.78 231.064 1092.51 231.732C1091.32 234.538 1089.87 237.479 1088.14 240.555C1086.42 243.631 1085.23 245.704 1084.56 246.775C1082.71 249.851 1079.92 252.933 1076.19 256.02C1072.6 259.239 1068.87 260.859 1065.01 260.88ZM1116.74 249.002C1114.34 249.015 1112.6 248.024 1111.53 246.03C1110.45 243.902 1109.91 241.438 1109.9 238.638C1109.89 235.038 1110.48 230.835 1111.66 226.029C1112.98 221.222 1114.7 216.279 1116.81 211.201C1118.93 205.99 1121.32 201.243 1123.97 196.962C1126.75 192.547 1129.68 188.998 1132.73 186.315C1135.79 183.499 1138.79 182.083 1141.72 182.067C1144.39 182.053 1146.66 183.24 1148.53 185.63C1150.54 187.886 1151.55 190.481 1151.56 193.414C1151.56 195.148 1151.3 196.616 1150.77 197.818C1150.24 198.888 1149.64 199.425 1148.98 199.428C1148.44 199.431 1147.98 199.033 1147.57 198.236C1146.23 195.176 1144.76 192.984 1143.15 191.659C1141.68 190.334 1140.14 189.675 1138.54 189.684C1135.88 189.698 1133.22 191.246 1130.56 194.327C1128.04 197.274 1125.98 200.685 1124.39 204.56C1123.07 207.501 1121.81 211.041 1120.63 215.181C1119.57 219.186 1118.65 223.191 1117.87 227.196C1117.21 231.066 1116.89 234.268 1116.9 236.801C1116.91 241.334 1117.99 243.595 1120.12 243.584C1122.79 243.569 1126.18 240.618 1130.29 234.729C1133.34 230.446 1136.06 225.498 1138.44 219.885C1140.96 214.271 1143.08 209.393 1144.8 205.251C1145.46 203.914 1146.19 203.043 1146.99 202.639C1147.79 202.235 1148.52 202.031 1149.18 202.027C1150.78 202.018 1151.79 202.68 1152.19 204.011C1152.73 205.341 1153 206.473 1153 207.407C1153.01 210.873 1152.69 214.008 1152.03 216.812C1151.37 219.482 1151.05 222.751 1151.06 226.617C1151.07 229.417 1151.28 232.016 1151.69 234.414C1152.23 236.678 1153.1 237.806 1154.3 237.8C1155.77 237.792 1157.63 235.915 1159.88 232.17C1160.41 231.1 1161.21 230.563 1162.28 230.557C1163.48 230.551 1164.08 231.147 1164.08 232.347C1164.09 234.081 1162.89 235.954 1160.5 237.967C1158.11 239.846 1155.71 240.792 1153.31 240.805C1150.11 240.823 1147.84 239.501 1146.5 236.842C1144.22 232.454 1143.07 228.527 1143.06 225.06C1143.05 221.46 1142.97 218.994 1142.84 217.661C1142.17 219.265 1140.92 221.805 1139.06 225.282C1137.2 228.625 1135.02 232.17 1132.49 235.917C1129.97 239.531 1127.32 242.612 1124.52 245.16C1121.73 247.708 1119.14 248.989 1116.74 249.002ZM1199.78 282.156C1198.45 282.163 1197.05 281.304 1195.58 279.579C1194.24 277.986 1192.96 275.726 1191.75 272.799C1189.74 268.01 1188.32 262.951 1187.5 257.622C1186.69 252.426 1186.27 247.162 1186.25 241.828C1186.23 235.962 1186.62 230.226 1187.4 224.622C1188.18 219.018 1189.03 213.947 1189.95 209.408C1190.6 206.205 1191.39 202.8 1192.31 199.195C1193.24 195.59 1194.09 192.719 1194.89 190.581C1194.09 190.719 1192.82 191.193 1191.09 192.002C1189.36 192.811 1187.56 193.621 1185.7 194.431C1183.97 195.24 1182.44 195.648 1181.1 195.656C1179.1 195.666 1178.1 194.538 1178.09 192.272C1178.09 191.072 1178.48 190.003 1179.28 189.065C1180.21 188.127 1181.34 187.387 1182.67 186.847C1185.34 185.633 1188.27 184.75 1191.47 184.2C1194.66 183.516 1196.8 182.838 1197.86 182.165L1203.02 168.938C1203.55 167.601 1204.47 165.463 1205.8 162.523C1207.25 159.448 1208.91 156.172 1210.76 152.696C1212.75 149.218 1214.68 146.075 1216.53 143.265C1217.99 141.123 1219.39 139.449 1220.72 138.242C1222.05 136.902 1223.51 136.227 1225.11 136.218C1227.51 136.206 1228.71 137.132 1228.72 138.999C1228.72 140.066 1228.26 141.668 1227.34 143.807C1226.54 145.944 1225.02 148.752 1222.76 152.231C1220.24 156.245 1217.66 160.259 1215 164.273C1212.48 168.153 1210.29 172.232 1208.44 176.508C1208.31 177.043 1207.98 177.911 1207.45 179.114C1207.05 180.183 1206.72 180.851 1206.46 181.119L1210.45 180.498C1211.52 180.359 1212.72 180.286 1214.05 180.278C1215.39 180.138 1216.85 180.063 1218.45 180.055C1220.72 180.043 1222.85 180.164 1224.85 180.42C1226.99 180.542 1228.72 180.866 1230.06 181.392C1230.72 181.656 1231.33 181.986 1231.86 182.383C1232.53 182.646 1232.86 182.911 1232.86 183.177C1232.86 183.711 1231.13 183.987 1227.67 184.005C1225.67 184.016 1222.8 184.365 1219.07 185.051C1215.47 185.737 1211.34 186.826 1206.68 188.318C1204.42 188.997 1202.88 189.938 1202.09 191.143C1201.29 192.347 1200.24 195.219 1198.92 199.76C1196.94 206.971 1195.36 213.913 1194.18 220.586C1193.01 227.125 1192.09 233.797 1191.45 240.601C1191.32 241.935 1191.19 243.335 1191.06 244.803C1191.07 246.269 1191.07 247.869 1191.08 249.603C1191.09 254.136 1191.51 258.867 1192.32 263.796C1193.27 268.724 1194.62 272.984 1196.37 276.575C1196.77 277.372 1197.17 278.104 1197.57 278.768C1198.11 279.432 1198.71 279.895 1199.38 280.158C1200.31 280.553 1200.78 281.018 1200.78 281.551C1200.78 281.951 1200.45 282.153 1199.78 282.156ZM1256.66 183.05C1255.46 183.056 1254.59 182.461 1254.05 181.264C1253.65 179.932 1253.44 179 1253.44 178.467C1253.43 176.333 1254.03 174.33 1255.22 172.457C1256.55 170.45 1258.01 169.375 1259.61 169.234L1260.21 169.23C1261.81 169.222 1262.88 169.616 1263.42 170.413C1264.08 171.076 1264.42 171.941 1264.42 173.008C1264.43 175.008 1263.57 177.212 1261.85 179.622C1260.12 181.898 1258.39 183.04 1256.66 183.05ZM1246.69 254.704C1242.16 254.728 1239.08 253.012 1237.47 249.553C1235.86 246.095 1235.05 242.1 1235.03 237.566C1235.02 233.033 1235.47 228.297 1236.39 223.359C1237.44 218.287 1238.56 213.681 1239.74 209.541C1241.06 205.4 1242.05 202.462 1242.71 200.725C1244.17 197.65 1245.63 195.042 1247.09 192.901C1248.55 190.627 1250.14 189.485 1251.88 189.475C1253.08 189.469 1253.95 189.931 1254.48 190.861C1255.15 191.658 1255.49 192.723 1255.49 194.056C1255.5 196.723 1254.78 199.46 1253.32 202.268C1251.86 204.942 1250.54 207.483 1249.34 209.889C1246.69 215.37 1244.58 220.248 1242.99 224.524C1241.54 228.798 1240.82 234.135 1240.84 240.535C1240.86 244.669 1241.27 247.666 1242.07 249.529C1243.01 251.39 1244.28 252.317 1245.88 252.308C1248.01 252.297 1250.48 251.084 1253.27 248.669C1256.06 246.12 1258.92 242.772 1261.84 238.622C1264.76 234.473 1267.34 229.993 1269.59 225.181C1271.05 222.106 1272.18 220.567 1272.98 220.562C1273.51 220.56 1273.78 221.091 1273.78 222.158C1273.79 223.625 1273.19 225.761 1272 228.568C1270.95 231.24 1269.62 233.981 1268.03 236.789C1266.57 239.597 1265.18 241.805 1263.85 243.412C1261.59 246.357 1259 248.971 1256.08 251.254C1253.15 253.536 1250.02 254.686 1246.69 254.704ZM1304.9 253.391C1301.3 253.411 1298.03 252.162 1295.08 249.644C1292.95 247.789 1291.4 245.597 1290.46 243.069C1289.52 240.54 1289.05 237.81 1289.04 234.876C1289.03 232.61 1289.22 230.342 1289.61 228.073C1290.14 225.67 1290.73 223.4 1291.39 221.264C1292.32 218.325 1293.51 215.652 1294.97 213.244C1296.43 210.836 1297.69 208.963 1298.75 207.624C1299.41 204.554 1300.66 200.947 1302.51 196.803C1304.37 192.66 1306.62 188.648 1309.27 184.767C1312.06 180.885 1315.18 177.669 1318.64 175.117C1322.1 172.431 1325.7 171.079 1329.43 171.059C1333.83 171.035 1337.64 173.015 1340.85 176.997C1344.2 180.846 1346.15 186.569 1346.71 194.166C1346.71 194.699 1346.71 195.233 1346.71 195.766C1346.85 196.299 1346.91 196.898 1346.92 197.565C1346.94 205.165 1345.1 212.775 1341.39 220.395C1337.81 227.881 1333.5 234.304 1328.45 239.665C1325.53 242.88 1321.94 245.966 1317.68 248.923C1313.43 251.879 1309.16 253.368 1304.9 253.391ZM1305.88 249.186C1309.48 249.167 1313.34 247.479 1317.47 244.124C1322.12 240.365 1326.11 235.611 1329.42 229.859C1332.74 224.108 1335.32 218.028 1337.16 211.618C1339.14 205.074 1340.32 198.734 1340.7 192.598C1340.96 189.13 1340.48 185.799 1339.27 182.606C1338.06 179.412 1335.52 177.359 1331.65 176.447C1330.58 176.186 1329.71 176.057 1329.05 176.061C1326.51 176.074 1323.92 176.888 1321.25 178.503C1318.73 180.116 1316.4 182.129 1314.27 184.54C1312.28 186.951 1310.69 189.359 1309.5 191.766C1308.44 194.038 1307.98 195.907 1308.12 197.373C1308.91 196.569 1310.24 195.429 1312.1 193.952C1314.1 192.341 1316.29 190.863 1318.69 189.517C1321.09 188.17 1323.15 187.493 1324.88 187.483C1326.22 187.476 1327.15 187.871 1327.69 188.668C1328.09 188.933 1328.16 189.466 1327.89 190.267C1326.16 189.743 1324.16 190.087 1321.9 191.299C1319.77 192.511 1317.57 194.189 1315.31 196.335C1313.19 198.48 1311.26 200.623 1309.53 202.766C1307.81 204.908 1306.55 206.582 1305.75 207.786C1305.22 208.322 1304.62 208.992 1303.96 209.796C1303.42 210.599 1303.09 211.467 1302.96 212.401C1302.83 212.669 1302.77 213.269 1302.77 214.202C1302.78 215.936 1303.32 218.066 1304.39 220.594C1305.6 223.121 1307.74 225.376 1310.81 227.359C1313.89 229.343 1318.16 230.453 1323.62 230.691C1323.76 230.823 1323.82 230.956 1323.82 231.089C1323.83 231.623 1323.29 232.026 1322.23 232.298C1321.3 232.436 1320.7 232.506 1320.43 232.508C1320.03 232.643 1319.63 232.712 1319.23 232.714C1318.83 232.716 1318.43 232.718 1318.03 232.721C1313.5 232.745 1309.76 231.098 1306.81 227.781C1303.87 224.33 1301.66 220.542 1300.18 216.416C1296.87 223.634 1295.22 229.976 1295.24 235.443C1295.25 239.843 1296.26 243.238 1298.27 245.627C1300.28 248.016 1302.82 249.203 1305.88 249.186ZM1415.35 251.598C1413.62 251.607 1412.08 250.549 1410.74 248.423C1409.4 246.163 1408.72 241.9 1408.7 235.634C1408.68 230.7 1409.06 225.298 1409.84 219.427C1410.63 213.423 1411.47 207.485 1412.39 201.613C1413.43 195.741 1414.35 190.536 1415.14 185.998C1415.92 181.328 1416.31 177.925 1416.3 175.792C1416.29 172.059 1415.15 170.198 1412.89 170.21C1410.75 170.222 1408.56 171.3 1406.3 173.446C1404.17 175.591 1402.11 178.202 1400.12 181.279C1398.26 184.356 1396.61 187.365 1395.15 190.306C1393.83 193.113 1392.97 195.184 1392.57 196.52C1390.72 201.73 1389.4 206.937 1388.62 212.141C1387.84 217.212 1387.45 222.481 1387.47 227.948C1387.48 230.214 1387.55 232.547 1387.7 234.946C1387.97 237.345 1388.18 239.811 1388.32 242.343C1388.59 243.675 1388.2 245.344 1387.14 247.35C1386.21 249.221 1385.08 250.161 1383.74 250.168C1382.81 250.173 1382.01 249.577 1381.34 248.381C1380.67 247.184 1380.2 246.12 1379.93 245.188C1379.39 243.591 1378.98 241.927 1378.71 240.195C1378.44 238.33 1378.17 236.731 1377.9 235.399C1376.95 229.937 1376.06 224.409 1375.24 218.813C1374.42 213.084 1373.27 207.557 1371.79 202.231C1371.38 200.767 1370.85 199.237 1370.17 197.64C1369.64 195.91 1368.76 194.514 1367.56 193.454C1367.29 193.189 1366.89 192.924 1366.36 192.661C1365.82 192.263 1365.56 191.932 1365.55 191.665C1365.55 191.132 1366.29 190.861 1367.75 190.853C1369.35 190.844 1370.95 191.636 1372.56 193.227C1374.17 194.819 1375.64 196.944 1376.98 199.604C1378.59 202.928 1379.94 206.454 1381.01 210.182C1382.23 213.909 1383.17 216.904 1383.84 219.167C1384.63 214.363 1385.48 210.091 1386.4 206.353C1387.33 203.148 1388.58 199.341 1390.17 194.933C1391.75 190.391 1393.74 185.98 1396.12 181.701C1398.51 177.288 1401.36 173.672 1404.69 170.854C1408.01 167.903 1411.87 166.416 1416.27 166.392C1422.67 166.358 1425.89 170.074 1425.91 177.541C1425.92 181.407 1425.27 185.677 1423.95 190.351C1422.63 194.892 1421.18 199.1 1419.59 202.975C1418.14 206.849 1417.15 209.521 1416.62 210.991C1415.96 212.861 1415.23 215.398 1414.44 218.603C1413.79 221.806 1413.2 225.143 1412.67 228.612C1412.29 232.081 1412.1 235.282 1412.11 238.215C1412.11 240.749 1412.39 242.881 1412.93 244.611C1413.6 246.207 1414.6 247.002 1415.93 246.995C1417.27 246.988 1418.47 246.381 1419.53 245.176C1420.59 243.837 1421.45 242.632 1422.12 241.562C1422.91 240.491 1423.31 240.289 1423.31 240.955C1423.59 242.954 1422.86 245.224 1421.14 247.767C1419.55 250.309 1417.62 251.586 1415.35 251.598ZM1458.68 159.364C1458.67 158.164 1459.73 155.425 1461.85 151.147C1463.31 147.806 1464.76 144.331 1466.22 140.724C1467.67 137.116 1468.39 133.845 1468.38 130.912C1468.38 129.445 1468.04 127.914 1467.37 126.317C1466.97 125.786 1467.3 124.984 1468.36 123.912C1469.56 122.705 1471.02 121.564 1472.75 120.488C1474.48 119.412 1475.88 118.871 1476.95 118.866C1478.81 118.856 1480.08 119.116 1480.75 119.645C1481.55 120.041 1481.95 120.572 1481.95 121.239C1481.96 122.439 1481.36 123.909 1480.17 125.649C1479.11 127.254 1478.11 128.86 1477.18 130.465C1475.59 133.407 1473.74 136.683 1471.62 140.295C1469.49 143.773 1467.44 147.117 1465.45 150.328C1463.46 153.405 1461.8 155.881 1460.47 157.755C1459.28 159.494 1458.68 160.031 1458.68 159.364ZM1514.75 257.064C1513.01 257.074 1511.74 256.481 1510.94 255.285C1510.27 254.222 1509.93 253.157 1509.93 252.09C1509.92 249.957 1510.85 247.752 1512.71 245.475C1513.37 244.672 1514.3 243.6 1515.5 242.26C1516.69 240.787 1517.56 239.649 1518.09 238.846C1516.35 236.456 1514.01 234.268 1511.07 232.284C1508.13 230.3 1505.25 227.782 1502.44 224.73C1499.9 221.944 1497.76 218.555 1496.01 214.565C1494.26 210.441 1493.38 206.512 1493.37 202.779C1493.36 198.379 1494.34 194.173 1496.33 190.162C1498.32 186.152 1500.77 182.672 1503.7 179.723C1506.89 176.506 1510.41 173.953 1514.27 172.066C1518.13 170.045 1522.13 169.024 1526.26 169.001C1529.06 168.986 1531.8 169.638 1534.47 170.957C1537.14 172.276 1538.48 174.469 1538.49 177.536C1538.5 181.136 1537.71 182.94 1536.11 182.949C1535.44 182.952 1534.97 182.288 1534.7 180.956C1534.56 180.29 1534.5 179.624 1534.49 178.957C1534.49 178.157 1534.49 177.624 1534.49 177.357C1534.48 176.024 1533.88 174.894 1532.68 173.967C1531.47 172.907 1530.14 172.381 1528.67 172.389C1525.61 172.405 1522.21 173.623 1518.48 176.043C1514.76 178.463 1511.63 181.28 1509.11 184.494C1506.59 187.841 1504.53 191.652 1502.95 195.927C1501.36 200.069 1500.58 204.073 1500.59 207.94C1500.6 212.74 1501.68 216.867 1503.83 220.323C1505.97 223.778 1508.52 226.831 1511.46 229.482C1514.53 232.132 1517.27 234.717 1519.68 237.238C1520.88 235.765 1522.14 234.358 1523.47 233.017C1524.93 231.676 1526.26 230.602 1527.46 229.796C1528.52 229.123 1529.26 228.786 1529.66 228.784C1530.06 228.782 1530.26 228.981 1530.26 229.381C1530.26 230.047 1529.66 230.851 1528.47 231.79C1528.2 232.059 1527.4 232.863 1526.07 234.203C1524.88 235.41 1523.42 236.951 1521.69 238.827C1522.76 240.021 1523.63 241.283 1524.3 242.613C1524.97 243.943 1525.31 245.408 1525.31 247.008C1525.32 249.141 1524.13 251.347 1521.74 253.627C1519.34 255.906 1517.01 257.052 1514.75 257.064ZM1516.93 251.653C1517.86 251.648 1518.73 250.776 1519.52 249.039C1520.45 247.434 1520.91 245.831 1520.91 244.231C1520.9 243.431 1520.77 242.699 1520.5 242.033C1520.23 241.368 1520.03 240.969 1519.89 240.837C1518.83 242.176 1517.84 243.648 1516.91 245.253C1516.11 246.724 1515.72 248.059 1515.72 249.259C1515.73 250.859 1516.13 251.657 1516.93 251.653Z" fill="#FF0000"/>
</svg>
